<?xml version="1.0" standalone="no"?>
<!DOCTYPE svg PUBLIC "-//W3C//DTD SVG 20010904//EN"
 "http://www.w3.org/TR/2001/REC-SVG-20010904/DTD/svg10.dtd">
<svg version="1.0" xmlns="http://www.w3.org/2000/svg"
 width="1124.000000pt" height="1124.000000pt" viewBox="0 0 1124.000000 1124.000000"
 preserveAspectRatio="xMidYMid meet">
<metadata>
Created by potrace 1.14, written by Peter Selinger 2001-2017
</metadata>
<g transform="translate(0.000000,1124.000000) scale(0.100000,-0.100000)"
fill="#000000" stroke="none">
<path d="M5458 11235 c-2 -2 -34 -6 -73 -9 -160 -13 -337 -42 -463 -77 -40
-11 -81 -22 -90 -24 -71 -16 -264 -100 -372 -163 -187 -109 -363 -282 -459
-454 -35 -61 -61 -116 -66 -138 -2 -8 -12 -36 -24 -62 -11 -27 -18 -48 -16
-48 3 0 0 -12 -6 -27 -6 -16 -13 -46 -16 -68 -2 -22 -8 -58 -13 -79 -9 -43 -6
-296 4 -336 3 -14 9 -41 12 -60 8 -44 9 -50 18 -75 39 -108 68 -170 108 -235
50 -81 189 -236 201 -224 4 4 7 2 7 -4 0 -18 123 -94 260 -162 226 -111 326
-162 334 -170 14 -14 -34 -71 -174 -210 -125 -125 -147 -149 -186 -205 -26
-38 -85 -145 -79 -145 2 0 -2 -15 -10 -34 -40 -95 -37 -251 7 -379 49 -146
111 -232 319 -442 212 -214 269 -278 269 -300 0 -4 6 -13 13 -20 22 -26 32
-41 35 -55 2 -8 7 -17 11 -20 10 -8 90 -177 97 -208 4 -15 10 -31 14 -37 4 -5
11 -21 15 -35 4 -14 13 -38 20 -55 24 -55 63 -185 56 -185 -4 0 -20 22 -36 50
-17 27 -33 50 -37 50 -5 0 -8 7 -8 15 0 8 -4 15 -8 15 -4 0 -16 15 -27 33 -10
17 -21 34 -25 37 -3 3 -51 68 -105 145 -55 77 -105 147 -112 155 -7 8 -42 56
-79 105 -36 50 -71 93 -78 97 -6 4 -7 8 -2 8 6 0 3 6 -5 13 -8 6 -34 37 -57
67 -23 30 -52 67 -64 82 -13 14 -37 43 -55 65 -36 44 -54 65 -126 148 -56 64
-307 319 -307 311 0 -2 -21 16 -47 40 -67 62 -82 75 -138 114 -28 19 -51 38
-53 42 -2 4 -9 8 -16 8 -8 0 -25 9 -39 20 -67 53 -335 166 -462 195 -16 4 -39
9 -50 12 -11 2 -29 6 -40 8 -11 2 -33 6 -50 9 -157 31 -417 26 -595 -11 -41
-8 -79 -16 -85 -17 -110 -22 -439 -173 -453 -208 -2 -4 -8 -8 -13 -8 -26 0
-186 -142 -253 -224 -17 -21 -36 -43 -41 -50 -73 -79 -208 -351 -229 -459 -2
-12 -9 -42 -14 -67 -6 -25 -14 -65 -18 -90 -13 -71 -8 -363 6 -400 2 -3 2 -8
2 -11 -1 -4 3 -22 9 -40 6 -19 12 -41 14 -49 7 -31 38 -116 51 -142 8 -15 14
-30 14 -33 0 -9 83 -139 115 -180 188 -235 466 -375 750 -378 126 -1 168 5
255 38 72 27 92 37 147 78 99 71 177 162 280 324 35 56 43 64 49 48 19 -55 76
-179 99 -215 14 -22 22 -40 18 -40 -5 0 -3 -4 2 -8 6 -4 27 -32 47 -62 65 -97
157 -184 249 -237 46 -26 145 -64 184 -70 88 -13 265 6 265 28 0 5 7 9 15 9
24 0 116 72 158 124 22 25 56 81 77 124 22 42 46 85 54 95 32 40 106 38 196
-6 51 -25 168 -97 200 -124 12 -10 30 -25 40 -33 9 -8 32 -26 50 -40 18 -14
42 -33 54 -43 169 -145 255 -227 241 -228 -15 -1 -104 -18 -125 -24 -20 -5
-90 -16 -92 -14 -2 1 -12 -3 -24 -9 -11 -6 -32 -13 -45 -15 -13 -3 -50 -13
-83 -22 -32 -9 -64 -18 -70 -20 -6 -1 -24 -7 -39 -13 -15 -7 -40 -15 -55 -19
-59 -14 -360 -142 -437 -185 -11 -7 -33 -18 -50 -27 -16 -8 -32 -17 -35 -20
-3 -3 -16 -12 -29 -19 -13 -8 -40 -23 -59 -34 -200 -112 -473 -341 -641 -537
-35 -41 -73 -84 -85 -96 -27 -28 -67 -80 -86 -113 -8 -14 -19 -31 -23 -37 -49
-64 -187 -329 -202 -385 0 -3 -11 -31 -23 -64 -26 -67 -88 -300 -97 -361 -3
-23 -7 -50 -9 -62 -19 -99 -26 -395 -12 -508 4 -33 9 -73 11 -90 2 -16 6 -43
9 -60 7 -35 17 -91 18 -102 0 -5 4 -18 9 -31 5 -12 11 -33 13 -45 17 -95 107
-323 184 -467 102 -191 221 -358 377 -529 48 -53 61 -66 133 -132 17 -17 32
-35 32 -40 0 -5 5 -9 11 -9 6 0 23 -12 38 -27 15 -16 43 -39 61 -53 55 -41 95
-75 98 -82 2 -5 9 -8 15 -8 7 -1 28 -14 47 -30 19 -17 40 -30 46 -30 7 0 14
-3 16 -8 6 -13 196 -131 215 -133 5 -1 19 -9 33 -19 64 -44 220 -110 445 -187
88 -31 193 -73 233 -94 118 -61 260 -181 387 -324 99 -111 217 -326 230 -417
4 -27 12 -48 17 -48 5 0 7 -4 4 -9 -3 -4 1 -17 9 -27 8 -10 15 -25 15 -31 0
-20 32 -53 78 -80 74 -44 171 -40 234 10 27 21 61 97 60 133 -2 53 43 185 91
270 36 61 92 144 99 144 4 0 8 4 8 9 0 12 68 89 145 163 118 114 315 236 425
264 56 14 232 79 325 120 22 10 42 18 45 18 28 5 322 163 328 178 2 5 8 8 13
8 20 0 234 152 349 247 82 68 274 267 339 348 34 44 68 87 74 95 11 14 104
156 134 205 13 21 99 195 126 256 42 93 110 328 123 424 3 22 7 46 10 54 18
56 25 481 10 636 -14 146 -42 284 -90 437 -69 221 -214 470 -376 647 -41 45
-77 87 -79 92 -8 24 -234 241 -331 319 -109 87 -282 204 -384 260 -72 39 -272
140 -279 140 -2 0 -21 7 -41 15 -20 8 -38 15 -41 15 -3 -1 -18 6 -33 14 -25
14 -257 94 -292 101 -8 2 -15 4 -15 5 0 1 -9 3 -20 5 -11 2 -29 5 -40 8 -72
18 -164 39 -185 42 -14 2 -59 10 -100 18 -41 8 -78 13 -82 10 -5 -2 -8 0 -8 4
0 5 28 34 62 64 34 30 76 66 92 81 17 15 76 63 131 107 55 44 108 87 117 96
10 8 22 15 26 15 5 0 22 11 38 25 16 14 33 25 37 25 5 0 22 9 38 21 16 11 29
17 29 13 0 -3 6 -2 13 4 18 15 109 38 134 34 34 -5 71 -50 109 -131 19 -41 42
-83 52 -94 145 -162 263 -209 462 -184 14 2 30 6 35 9 6 3 34 13 63 23 100 32
221 127 309 241 43 55 133 211 125 218 -3 3 -1 6 5 6 9 0 15 11 28 55 2 6 12
30 22 55 l20 45 18 -34 c9 -19 21 -39 26 -45 5 -6 27 -37 48 -69 69 -104 148
-190 216 -235 22 -15 42 -29 45 -32 14 -16 136 -62 201 -76 115 -25 307 -17
394 16 14 5 25 7 25 4 0 -4 6 -2 13 3 6 6 26 13 42 17 31 8 206 92 215 104 3
4 24 20 46 35 99 67 217 210 282 341 41 83 89 223 97 282 3 19 8 51 12 72 8
47 7 306 -1 352 -4 19 -9 49 -12 65 -10 56 -17 88 -26 115 -3 8 -11 33 -17 55
-15 48 -19 59 -65 155 -43 90 -69 135 -90 159 -9 10 -16 21 -16 24 0 19 -193
217 -255 263 -22 16 -46 35 -53 42 -7 6 -17 12 -22 12 -5 0 -15 6 -22 13 -7 6
-27 19 -43 28 -17 9 -55 30 -85 46 -113 61 -318 128 -450 147 -19 3 -48 8 -65
11 -16 4 -66 8 -111 9 -44 2 -86 6 -92 10 -7 4 -12 3 -12 -1 0 -10 -53 -9 -69
2 -6 3 -11 2 -11 -3 0 -5 -12 -8 -27 -7 -16 0 -71 -5 -123 -13 -122 -18 -135
-20 -135 -22 0 -1 -8 -3 -18 -5 -22 -4 -118 -33 -177 -53 -25 -8 -83 -33 -130
-55 -47 -22 -87 -41 -90 -41 -18 -4 -243 -161 -286 -201 -6 -5 -35 -30 -65
-55 -62 -53 -246 -236 -304 -303 -22 -26 -61 -71 -87 -99 -26 -29 -48 -56 -48
-60 0 -3 -16 -23 -35 -42 -19 -20 -35 -40 -35 -45 0 -5 -4 -11 -8 -13 -9 -3
-57 -66 -221 -288 -39 -52 -74 -99 -79 -105 -19 -24 -159 -219 -176 -246 -10
-16 -20 -28 -22 -27 -4 5 22 80 47 134 10 24 19 45 19 49 0 9 86 177 112 220
59 94 140 183 332 363 31 29 56 55 56 58 0 3 11 15 23 27 69 64 220 338 209
379 -1 4 3 19 8 34 15 40 13 235 -3 251 -4 3 -7 15 -7 25 0 10 -4 26 -9 36 -5
9 -19 37 -31 62 -40 79 -99 152 -235 287 -73 72 -147 150 -164 172 -29 37 -31
42 -14 46 23 7 186 87 193 94 3 3 50 28 105 55 55 26 119 61 143 77 24 16 47
29 52 29 5 0 13 6 17 13 4 6 26 24 48 40 72 49 235 228 235 257 0 6 3 10 8 10
6 0 74 132 78 150 0 3 3 12 7 20 35 91 59 224 60 335 0 90 -9 183 -27 265 -3
14 -8 34 -10 45 -2 11 -9 31 -14 45 -5 14 -10 28 -11 32 -10 49 -75 183 -128
264 -55 84 -183 223 -263 286 -94 73 -246 159 -390 221 -38 16 -215 77 -240
82 -8 2 -53 12 -100 23 -90 21 -186 38 -266 48 -27 3 -60 8 -74 10 -29 6 -477
13 -482 9z"/>
</g>
</svg>
