<svg xmlns="http://www.w3.org/2000/svg" viewBox="0 0 207.56 281.23"><defs><style>.cls-1{fill:#bbef60;}.cls-2{fill:#684f3e;}.cls-3{fill:#ff3b82;}.cls-4{fill:#fff;}.cls-5{fill:#fff3d7;}.cls-6{fill:#897466;}</style></defs><g id="Layer_2" data-name="Layer 2"><g id="Layer_1-2" data-name="Layer 1"><path class="cls-1" d="M144.93,33.19C144.93,11.46,122.8,5,104.8,5h-.14c-18,0-40.13,6.46-40.13,28.19,0,21.22,24.08,18.94,24.08,27.14,0,7.28-12.31,10.47-12.31,19.12S86.76,94.76,89.68,98.58c7.38,9.63,14,36.22,15,40.42v.56s0-.1.07-.28c0,.18.07.28.07.28V139c1-4.2,7.6-30.79,15-40.42,2.92-3.82,13.38-10.48,13.38-19.13s-12.31-11.84-12.31-19.12C120.85,52.13,144.93,54.41,144.93,33.19Z"/><path class="cls-2" d="M149.93,33.19C149.4,8.89,125.75.2,104.8,0l5,5h0a5.07,5.07,0,0,0-5-5h-.14a5.07,5.07,0,0,0-5,5h0l5-5c-14,.13-30.23,3.34-39.25,15.09C57,26,57.21,43.35,68.35,52.28c4.12,3.3,9,5,13.55,7.42.41.22,1.58.88,1.46.84.76.28,0,.57.28,0-.81,1.76-3.27,4-5.12,5.7C73,71.29,69.73,77.39,72.28,84.93c2.47,7.3,8.82,11,13.4,16.62,4.83,6,7.17,14.59,9.44,21.8,1.12,3.54,2.15,7.11,3.12,10.7.35,1.3.68,2.59,1,3.89s.41,2.3.41,1.62c0,5.54,8.51,6.92,9.83,1.33l.06-.28H99.91l.07.28c1.3,5.53,9.82,4.27,9.82-1.33,0-.82-.25,1.12,0,0,.15-.66.33-1.32.49-2q.76-3,1.59-6c1.4-5,2.92-10,4.68-14.93s3.55-9.93,6.49-14.14c2.66-3.81,6.75-6.52,9.69-10.14,3.4-4.18,6-9.23,5.26-14.76-.66-5.17-4.18-8.84-7.86-12.21a34.2,34.2,0,0,1-4.09-4.43c-.44-.57-.5-.28,0-.46,2.32-.84,5.4-2.69,7.91-3.9,9.74-4.72,15.72-12.41,16-23.5.15-6.43-9.85-6.43-10,0-.21,9.16-6.37,12.72-13.89,16.19-6.48,3-12.58,7.53-9.18,15.54,1.84,4.34,5.84,6.9,9,10.23,4.13,4.41,1.45,8.72-2.22,12.6-3.22,3.42-6.89,6.2-9.44,10.2a74,74,0,0,0-6.37,13.72c-2.14,5.68-3.93,11.49-5.55,17.33-.92,3.29-2.44,7.1-2.44,10.56l9.82-1.33-.07-.28c-1.12-4.77-8.51-4.77-9.64,0l-.07.28,9.82,1.33c0-4.13-1.9-8.72-3-12.63a176.32,176.32,0,0,0-7.09-20.52c-2.36-5.54-5.06-10.42-9.46-14.56-4-3.76-11.93-10-7.17-15.91,3.86-4.77,10.16-7.82,10.62-14.69.31-4.51-2.33-7.67-6-9.88-3.89-2.31-8.34-3.53-12.05-6.19C70.59,41.69,69,36.35,69.65,30.5,71.51,14,91,10.13,104.66,10a5.07,5.07,0,0,0,5-5h0l-5,5h.14l-5-5h0a5.07,5.07,0,0,0,5,5c15.09.14,34.73,4.86,35.13,23.19C140.07,39.62,150.07,39.64,149.93,33.19Z"/><path class="cls-1" d="M102.89,142.05s-32.5-52.14-49-60.47c-26-13.11-49.09,4.65-48.9,22.3C5.15,120,15.34,127.22,25.76,127c11.48-.3,12.55-17.51,19.6-16.22,0,0,3.64,20,14.54,20.17,7.37.12,5.75-10.45,12.64-10.87C82.36,119.44,102.89,142.05,102.89,142.05Z"/><path class="cls-2" d="M107.21,139.53c-5.09-8.15-10.49-16.13-16-24C82.73,103.71,73.89,91,62.62,81.6,48.37,69.76,26.47,68.65,11.87,80.47-1.66,91.42-5,114.16,9.23,126.22c6.4,5.41,17,8.1,24.53,3.34,3.36-2.14,5.69-5.47,7.78-8.78a34.62,34.62,0,0,1,2.55-4.06c.78-.91.52-1.06,1.27-1l-4.82-3.67c1.16,6.17,3.59,12.69,7.59,17.58,5.7,7,16.13,9,21.5.5,1.61-2.53,1.74-5.68,5.13-4.72,3.84,1.09,7.54,4.26,10.56,6.76a137.68,137.68,0,0,1,14,13.4c4.35,4.77,11.4-2.32,7.07-7.07a139.54,139.54,0,0,0-13.17-12.68c-5.66-4.78-13.39-11.48-21.37-10.71-4.54.43-7.27,3.45-9.38,7.22-1.6,2.84-2.2,4.85-5.44,2.28-4.14-3.28-5.94-10.24-6.88-15.22-.43-2.31-2.74-3.45-4.82-3.67-5.57-.58-8.93,4.29-11.51,8.44-3.23,5.21-5.85,9-12.59,7.29-7.62-2-11.07-9.39-11.25-16.77-.18-7.13,3.73-13.4,9.44-17.5,12.63-9.08,29.41-5.31,39.93,5,9.25,9,17,19.69,24.4,30.23,5.11,7.27,10.09,14.65,14.79,22.19C102,150,110.63,145,107.21,139.53Z"/><path class="cls-1" d="M104.81,142.05s32.49-52.14,49-60.47c26-13.11,49.09,4.65,48.9,22.3-.17,16.16-10.35,23.34-20.78,23.08-11.48-.3-12.54-17.51-19.6-16.22,0,0-3.64,20-14.54,20.17-7.37.12-5.74-10.45-12.64-10.87C125.33,119.44,104.81,142.05,104.81,142.05Z"/><path class="cls-2" d="M109.12,144.58c10.72-17.18,22.3-34.53,36.18-49.33,3.29-3.5,6.75-7.09,11-9.36,8.13-4.3,18.37-5.25,26.89-1.55,6.46,2.81,12.27,8.39,14,15.39s-.42,15.85-6.59,19.91-11.62,2.68-15.35-3.12c-3-4.69-6.28-11.48-12.95-10.78-2.05.22-4.39,1.39-4.82,3.67-.94,5-2.74,11.9-6.87,15.22-3.25,2.6-3.87.55-5.44-2.28-2.11-3.78-4.83-6.78-9.39-7.22-8-.77-15.71,5.93-21.36,10.71a138.45,138.45,0,0,0-13.18,12.68c-4.32,4.75,2.73,11.84,7.07,7.07a137.78,137.78,0,0,1,14-13.4c3.05-2.52,6.7-5.61,10.56-6.76,3.37-1,3.54,2.22,5.12,4.72,5.37,8.48,15.81,6.47,21.51-.5,4-4.89,6.43-11.41,7.58-17.58l-4.82,3.67c1-.11,2.24,2.47,3.11,3.87,1.84,3,3.73,6,6.39,8.34,6.14,5.34,15,4.83,22,1.37,16.6-8.23,17.46-31.65,6.42-44.61C187.75,70.06,164.08,68.15,148.5,79c-11.65,8.09-20.46,20.78-28.71,32.08-6.75,9.26-13.23,18.76-19.3,28.48C97.07,145,105.72,150,109.12,144.58Z"/><path class="cls-3" d="M171.79,196.26c0,14.53-5.3,33.87-24.3,45.87-12.79,0-16.43-6-42-6-24.58,0-29.27,6-39,7,0,0-3-1.11,19.59,6.53,13.58,7.75,17.89,19,19.08,23.22a8,8,0,0,0-.1,1.19s-1.61-13.79-19.64-24.52c-27.58-6.88-47.62-28.14-47.62-53.29,0-30.73,30-55.64,67-55.64S171.79,165.53,171.79,196.26Z"/><path class="cls-4" d="M146.49,242.13c-9,6-11,6-22,10-16.14,9.84-18,18-19,23-1.19-4.23-6.42-15.25-20-23-22.55-7.65-22-10-22-10,7-1,17.42-8,42-8C131.06,234.13,137.49,241.13,146.49,242.13Z"/><path class="cls-2" d="M88.49,215c.05,8.73,7.39,14.94,16.29,15.14,9.24.21,16.76-6.21,17-15.14.09-4.19-6.72-4.19-6.82,0,0,.15,0,.29,0,.44-.1.93.15-.47-.08.56a13.61,13.61,0,0,1-.94,2.95c-1.72,3.48-5.21,4.77-9.09,4.68-3.63-.08-6.89-1.48-8.48-4.71a13.75,13.75,0,0,1-.93-3c-.09-.48,0,.49,0-.43a4,4,0,0,1,0-.49c0-4.19-6.84-4.2-6.81,0Z"/><path class="cls-2" d="M105.1,136.6c-29.56.28-61,16.38-69.85,46.32s10.84,58.41,38,69.8c4.49,1.88,9.56,2.76,13.54,5.62a38.86,38.86,0,0,1,9.3,9.24,28.87,28.87,0,0,1,3.5,6.58c.3.83,1.1,5,.76,2.27.78,6.18,10,6.63,10,0,0-1.26-.25.61.09-.83a19.41,19.41,0,0,1,2-5.25c3.63-6.5,10.22-12.7,17.34-14.87,14.74-4.51,28-13.32,37.05-25.92,17.7-24.76,10.85-57.79-12.35-76.26-14-11.17-31.58-16.53-49.39-16.7-6.44-.06-6.44,9.94,0,10,27.11.25,57.72,16.23,61.65,45.59,1.81,13.5-3.17,27-12.35,36.91a59.79,59.79,0,0,1-17.05,12.67,63.41,63.41,0,0,1-10.22,4.06,32.75,32.75,0,0,0-11.16,6c-7.23,5.61-15.67,14.71-15.6,24.64h10c-1.06-8.3-6.18-15.93-12.14-21.57A48.63,48.63,0,0,0,89,247.81c-3.34-1.89-7.48-2.47-11.06-3.91a61.72,61.72,0,0,1-18.57-11.5c-10.14-9.23-16.62-22-16.25-35.86.35-13.13,7-25,16.67-33.66,12.36-11,28.95-16.13,45.31-16.28C111.53,146.54,111.55,136.54,105.1,136.6Z"/><path class="cls-5" d="M38.17,195.6s15.4,16.26,51.26,8.82c4.32-.9,8-8.92,14.78-9,7.11-.11,9.32,7.26,13.48,8.39,26.59,7.22,54-6.47,54-6.47.85-18.83-10.27-29.95-10.27-29.95H48.44S38.17,181.06,38.17,195.6Z"/><path class="cls-2" d="M34.64,199.14c10.24,10.65,28.47,13,42.3,12,6.25-.43,13.75-.6,18.81-4.68,3.86-3.12,7.4-8.61,12.4-4.19,1.68,1.49,3,3.31,4.84,4.6,2.77,1.94,6.15,2.48,9.44,3a77.92,77.92,0,0,0,22.77.2,93.48,93.48,0,0,0,29-8.47,5,5,0,0,0,2.48-4.31c.27-10.16-2.28-20.47-8.1-28.89-2.15-3.12-3.95-5.89-8-6.06-9.25-.4-18.62,0-27.87,0H52.76c-3.53,0-6.31-.47-8.8,2.69A53.74,53.74,0,0,0,33.17,195.6c-.16,6.44,9.84,6.44,10,0,.24-9.19,4.15-18.36,9.59-25.71l-4.32,2.48h113l-3.54-1.47c6.47,6.59,9.05,17.23,8.81,26.42l2.47-4.32a82.69,82.69,0,0,1-21.4,6.65,70.69,70.69,0,0,1-21.38.8c-2.52-.32-5.87-.56-8-2s-3.38-3.61-5.34-5.06a14.26,14.26,0,0,0-14.27-1.77c-4.43,1.9-7.12,6.75-11.55,8.15C76.86,203.06,63.15,202,53,198.44A39.94,39.94,0,0,1,44.08,194a8,8,0,0,1-2.37-1.93C37.24,187.42,30.17,194.5,34.64,199.14Z"/><circle class="cls-6" cx="75.23" cy="187.44" r="9.22"/><circle class="cls-6" cx="134.11" cy="187.44" r="9.22"/></g></g></svg>